<mxfile host="app.diagrams.net" modified="2024-06-12T11:45:12.393Z" agent="Mozilla/5.0 (Windows NT 10.0; Win64; x64) AppleWebKit/537.36 (KHTML, like Gecko) Chrome/125.0.0.0 Safari/537.36 Edg/125.0.0.0" etag="oKHezouOXsJ-dmU92pkP" version="24.5.3" type="github">
  <diagram id="C5RBs43oDa-KdzZeNtuy" name="Page-1">
    <mxGraphModel dx="1185" dy="1851" grid="1" gridSize="10" guides="1" tooltips="1" connect="1" arrows="1" fold="1" page="1" pageScale="1" pageWidth="827" pageHeight="1169" math="0" shadow="0">
      <root>
        <mxCell id="WIyWlLk6GJQsqaUBKTNV-0" />
        <mxCell id="WIyWlLk6GJQsqaUBKTNV-1" parent="WIyWlLk6GJQsqaUBKTNV-0" />
        <UserObject label="&lt;span style=&quot;font-family:&#39;Microsoft YaHei&#39;; font-size:10pt; font-weight:600; color:#191919;&quot;&gt;主诉&lt;/span&gt;" tooltip="https://www.wjx.top/vm/PAEKFaG.aspx# " id="WIyWlLk6GJQsqaUBKTNV-3">
          <mxCell style="rounded=1;whiteSpace=wrap;html=1;fontSize=12;glass=0;strokeWidth=1;shadow=0;" parent="WIyWlLk6GJQsqaUBKTNV-1" vertex="1">
            <mxGeometry x="206" y="-15" width="120" height="40" as="geometry" />
          </mxCell>
        </UserObject>
        <mxCell id="7XbU0VK9b8gOayEAfSGL-2" value="&lt;span style=&quot;color: rgb(25, 25, 25); font-family: &amp;quot;Microsoft YaHei&amp;quot;; font-size: 13.3333px; font-weight: 600;&quot;&gt;开始接待&lt;/span&gt;" style="html=1;dashed=0;whiteSpace=wrap;shape=mxgraph.dfd.start" vertex="1" parent="WIyWlLk6GJQsqaUBKTNV-1">
          <mxGeometry x="30" y="-15" width="130" height="40" as="geometry" />
        </mxCell>
        <mxCell id="7XbU0VK9b8gOayEAfSGL-8" value="" style="edgeStyle=orthogonalEdgeStyle;rounded=0;orthogonalLoop=1;jettySize=auto;html=1;" edge="1" parent="WIyWlLk6GJQsqaUBKTNV-1" source="7XbU0VK9b8gOayEAfSGL-5" target="7XbU0VK9b8gOayEAfSGL-7">
          <mxGeometry relative="1" as="geometry" />
        </mxCell>
        <UserObject label="&lt;span style=&quot;font-family:&#39;Microsoft YaHei&#39;; font-size:10pt; font-weight:600; color:#191919;&quot;&gt;填表&lt;/span&gt;" tooltip="https://www.wjx.top/vm/PAEKFaG.aspx# " id="7XbU0VK9b8gOayEAfSGL-5">
          <mxCell style="rounded=1;whiteSpace=wrap;html=1;fontSize=12;glass=0;strokeWidth=1;shadow=0;" vertex="1" parent="WIyWlLk6GJQsqaUBKTNV-1">
            <mxGeometry x="376" y="-15" width="120" height="40" as="geometry" />
          </mxCell>
        </UserObject>
        <mxCell id="7XbU0VK9b8gOayEAfSGL-10" value="" style="edgeStyle=orthogonalEdgeStyle;rounded=0;orthogonalLoop=1;jettySize=auto;html=1;" edge="1" parent="WIyWlLk6GJQsqaUBKTNV-1" source="7XbU0VK9b8gOayEAfSGL-7" target="7XbU0VK9b8gOayEAfSGL-9">
          <mxGeometry relative="1" as="geometry" />
        </mxCell>
        <mxCell id="7XbU0VK9b8gOayEAfSGL-7" value="&lt;span style=&quot;font-family:&#39;Microsoft YaHei&#39;; font-size:10pt; font-weight:600; color:#191919;&quot;&gt;预约时间&lt;/span&gt;" style="rounded=1;whiteSpace=wrap;html=1;fontSize=12;glass=0;strokeWidth=1;shadow=0;" vertex="1" parent="WIyWlLk6GJQsqaUBKTNV-1">
          <mxGeometry x="546" y="-15" width="120" height="40" as="geometry" />
        </mxCell>
        <mxCell id="7XbU0VK9b8gOayEAfSGL-16" value="" style="edgeStyle=orthogonalEdgeStyle;rounded=0;orthogonalLoop=1;jettySize=auto;html=1;" edge="1" parent="WIyWlLk6GJQsqaUBKTNV-1" source="7XbU0VK9b8gOayEAfSGL-9" target="7XbU0VK9b8gOayEAfSGL-15">
          <mxGeometry relative="1" as="geometry" />
        </mxCell>
        <mxCell id="7XbU0VK9b8gOayEAfSGL-9" value="&lt;span style=&quot;font-family:&#39;Microsoft YaHei&#39;; font-size:10pt; font-weight:600; color:#191919;&quot;&gt;付费&lt;/span&gt;" style="rounded=1;whiteSpace=wrap;html=1;fontSize=12;glass=0;strokeWidth=1;shadow=0;" vertex="1" parent="WIyWlLk6GJQsqaUBKTNV-1">
          <mxGeometry x="716" y="-15" width="120" height="40" as="geometry" />
        </mxCell>
        <mxCell id="7XbU0VK9b8gOayEAfSGL-11" value="" style="edgeStyle=orthogonalEdgeStyle;rounded=0;orthogonalLoop=1;jettySize=auto;html=1;exitX=1;exitY=0.5;exitDx=0;exitDy=0;exitPerimeter=0;entryX=0;entryY=0.5;entryDx=0;entryDy=0;" edge="1" parent="WIyWlLk6GJQsqaUBKTNV-1" source="7XbU0VK9b8gOayEAfSGL-2" target="WIyWlLk6GJQsqaUBKTNV-3">
          <mxGeometry relative="1" as="geometry">
            <mxPoint x="520" y="15" as="sourcePoint" />
            <mxPoint x="570" y="15" as="targetPoint" />
          </mxGeometry>
        </mxCell>
        <mxCell id="7XbU0VK9b8gOayEAfSGL-12" value="" style="edgeStyle=orthogonalEdgeStyle;rounded=0;orthogonalLoop=1;jettySize=auto;html=1;exitX=1;exitY=0.5;exitDx=0;exitDy=0;entryX=0;entryY=0.5;entryDx=0;entryDy=0;" edge="1" parent="WIyWlLk6GJQsqaUBKTNV-1" source="WIyWlLk6GJQsqaUBKTNV-3" target="7XbU0VK9b8gOayEAfSGL-5">
          <mxGeometry relative="1" as="geometry">
            <mxPoint x="530" y="25" as="sourcePoint" />
            <mxPoint x="580" y="25" as="targetPoint" />
          </mxGeometry>
        </mxCell>
        <mxCell id="7XbU0VK9b8gOayEAfSGL-18" value="" style="edgeStyle=orthogonalEdgeStyle;rounded=0;orthogonalLoop=1;jettySize=auto;html=1;exitX=0.5;exitY=1;exitDx=0;exitDy=0;" edge="1" parent="WIyWlLk6GJQsqaUBKTNV-1" source="7XbU0VK9b8gOayEAfSGL-15" target="7XbU0VK9b8gOayEAfSGL-17">
          <mxGeometry relative="1" as="geometry" />
        </mxCell>
        <mxCell id="7XbU0VK9b8gOayEAfSGL-15" value="&lt;span style=&quot;font-family:&#39;Microsoft YaHei&#39;; font-size:10pt; font-weight:600; color:#191919;&quot;&gt;发送设置&lt;/span&gt;" style="rounded=1;whiteSpace=wrap;html=1;fontSize=12;glass=0;strokeWidth=1;shadow=0;" vertex="1" parent="WIyWlLk6GJQsqaUBKTNV-1">
          <mxGeometry x="870" y="-15" width="120" height="40" as="geometry" />
        </mxCell>
        <mxCell id="7XbU0VK9b8gOayEAfSGL-20" value="" style="edgeStyle=orthogonalEdgeStyle;rounded=0;orthogonalLoop=1;jettySize=auto;html=1;" edge="1" parent="WIyWlLk6GJQsqaUBKTNV-1" source="7XbU0VK9b8gOayEAfSGL-17" target="7XbU0VK9b8gOayEAfSGL-19">
          <mxGeometry relative="1" as="geometry" />
        </mxCell>
        <mxCell id="7XbU0VK9b8gOayEAfSGL-17" value="&lt;span style=&quot;font-family:&#39;Microsoft YaHei&#39;; font-size:10pt; font-weight:600; color:#191919;&quot;&gt;来访者确认&lt;/span&gt;" style="rounded=1;whiteSpace=wrap;html=1;fontSize=12;glass=0;strokeWidth=1;shadow=0;" vertex="1" parent="WIyWlLk6GJQsqaUBKTNV-1">
          <mxGeometry x="870" y="90" width="120" height="40" as="geometry" />
        </mxCell>
        <mxCell id="7XbU0VK9b8gOayEAfSGL-22" value="" style="edgeStyle=orthogonalEdgeStyle;rounded=0;orthogonalLoop=1;jettySize=auto;html=1;" edge="1" parent="WIyWlLk6GJQsqaUBKTNV-1" source="7XbU0VK9b8gOayEAfSGL-19" target="7XbU0VK9b8gOayEAfSGL-21">
          <mxGeometry relative="1" as="geometry" />
        </mxCell>
        <mxCell id="7XbU0VK9b8gOayEAfSGL-19" value="&lt;span style=&quot;font-family:&#39;Microsoft YaHei&#39;; font-size:10pt; font-weight:600; color:#191919;&quot;&gt;发详细地址&lt;/span&gt;" style="rounded=1;whiteSpace=wrap;html=1;fontSize=12;glass=0;strokeWidth=1;shadow=0;" vertex="1" parent="WIyWlLk6GJQsqaUBKTNV-1">
          <mxGeometry x="707" y="90" width="120" height="40" as="geometry" />
        </mxCell>
        <mxCell id="7XbU0VK9b8gOayEAfSGL-21" value="&lt;b style=&quot;color: rgb(25, 25, 25); font-family: &amp;quot;Microsoft YaHei&amp;quot;; font-size: 13.3333px;&quot;&gt;咨询前一天&lt;/b&gt;" style="html=1;dashed=0;whiteSpace=wrap;shape=mxgraph.dfd.start" vertex="1" parent="WIyWlLk6GJQsqaUBKTNV-1">
          <mxGeometry x="536" y="90" width="130" height="40" as="geometry" />
        </mxCell>
        <mxCell id="7XbU0VK9b8gOayEAfSGL-23" value="&lt;span style=&quot;font-family:&#39;Microsoft YaHei&#39;; font-size:10pt; font-weight:600; color:#191919;&quot;&gt;提醒&lt;/span&gt;" style="rounded=1;whiteSpace=wrap;html=1;fontSize=12;glass=0;strokeWidth=1;shadow=0;" vertex="1" parent="WIyWlLk6GJQsqaUBKTNV-1">
          <mxGeometry x="376" y="90" width="120" height="40" as="geometry" />
        </mxCell>
        <mxCell id="7XbU0VK9b8gOayEAfSGL-29" value="" style="edgeStyle=orthogonalEdgeStyle;rounded=0;orthogonalLoop=1;jettySize=auto;html=1;entryX=1;entryY=0.5;entryDx=0;entryDy=0;entryPerimeter=0;" edge="1" parent="WIyWlLk6GJQsqaUBKTNV-1" source="7XbU0VK9b8gOayEAfSGL-25" target="7XbU0VK9b8gOayEAfSGL-28">
          <mxGeometry relative="1" as="geometry" />
        </mxCell>
        <mxCell id="7XbU0VK9b8gOayEAfSGL-25" value="&lt;span style=&quot;font-family:&#39;Microsoft YaHei&#39;; font-size:10pt; font-weight:600; color:#191919;&quot;&gt;来访者确认/取消&lt;/span&gt;" style="rounded=1;whiteSpace=wrap;html=1;fontSize=12;glass=0;strokeWidth=1;shadow=0;" vertex="1" parent="WIyWlLk6GJQsqaUBKTNV-1">
          <mxGeometry x="206" y="90" width="120" height="40" as="geometry" />
        </mxCell>
        <mxCell id="7XbU0VK9b8gOayEAfSGL-26" value="" style="edgeStyle=orthogonalEdgeStyle;rounded=0;orthogonalLoop=1;jettySize=auto;html=1;exitX=0;exitY=0.5;exitDx=0;exitDy=0;exitPerimeter=0;entryX=1;entryY=0.5;entryDx=0;entryDy=0;" edge="1" parent="WIyWlLk6GJQsqaUBKTNV-1" source="7XbU0VK9b8gOayEAfSGL-21" target="7XbU0VK9b8gOayEAfSGL-23">
          <mxGeometry relative="1" as="geometry">
            <mxPoint x="510" y="369" as="sourcePoint" />
            <mxPoint x="560" y="369" as="targetPoint" />
          </mxGeometry>
        </mxCell>
        <mxCell id="7XbU0VK9b8gOayEAfSGL-27" value="" style="edgeStyle=orthogonalEdgeStyle;rounded=0;orthogonalLoop=1;jettySize=auto;html=1;exitX=0;exitY=0.5;exitDx=0;exitDy=0;entryX=1;entryY=0.5;entryDx=0;entryDy=0;" edge="1" parent="WIyWlLk6GJQsqaUBKTNV-1" source="7XbU0VK9b8gOayEAfSGL-23" target="7XbU0VK9b8gOayEAfSGL-25">
          <mxGeometry relative="1" as="geometry">
            <mxPoint x="520" y="379" as="sourcePoint" />
            <mxPoint x="570" y="379" as="targetPoint" />
          </mxGeometry>
        </mxCell>
        <mxCell id="7XbU0VK9b8gOayEAfSGL-28" value="&lt;span style=&quot;color: rgb(25, 25, 25); font-family: &amp;quot;Microsoft YaHei&amp;quot;; font-size: 13.3333px; font-weight: 600;&quot;&gt;结束&lt;/span&gt;" style="html=1;dashed=0;whiteSpace=wrap;shape=mxgraph.dfd.start" vertex="1" parent="WIyWlLk6GJQsqaUBKTNV-1">
          <mxGeometry x="30" y="90" width="130" height="40" as="geometry" />
        </mxCell>
      </root>
    </mxGraphModel>
  </diagram>
</mxfile>
